<svg id="Layer_1" data-name="Layer 1" xmlns="http://www.w3.org/2000/svg" viewBox="0 0 1436.61 373.33"><defs><style>.cls-1{fill:#662d91;}.cls-2{fill:#fff;}.cls-3{fill:none;stroke:#fff;stroke-miterlimit:10;stroke-width:8px;}</style></defs><rect class="cls-1" x="3.61" y="4.33" width="1427" height="361"/><rect id="box" class="cls-2" x="0.61" y="289.96" width="1435" height="83.38"/><path class="cls-2" d="M222.46,124.54,204.53,67.48h-17V61.81h92.61v5.67H262.49L307,208.78l35.85-141.3H312.67V61.81h59.75v5.67H352.71l-55,206.43H271.15l-44.21-135-38.84,135h-26L86.83,67.48h-14V61.81h97.09v5.67H149l48.69,143.1Z" transform="translate(-17.39 -14.67)"/><path class="cls-2" d="M473.32,142.68,475.15,179h-3.29c-10.08-24-18.69-32.25-40.86-32.25h-6.41v56.61h6.23c11.91,0,19.6-10.07,22.72-24h2.74v54.23h-3.11c-4.4-18.32-11.36-25.47-24.18-25.47h-4.4v58.81h7c23.27,0,39.39-15.94,44.89-35.91h3.66l-1.47,39.94H378.06v-4h10.81V146.71H378.06v-4Z" transform="translate(-17.39 -14.67)"/><path class="cls-2" d="M569.5,249.67c0-15.21-11.36-20.15-33.89-26.56-22.17-6.23-39-15-39-42.69,0-20.52,15.2-39.75,43.42-39.75,16.85,0,26.38,5.68,32.6,5.68,3.12,0,4-1.29,5.32-3.67h2l1.28,37h-2.93c-9.34-16.86-21.8-35.17-40.67-35.17-13.19,0-22.35,7.69-22.35,18.5,0,13.55,12.46,18.13,31,23.08,20.34,5.5,42.87,12.46,42.87,42.87,0,26.38-18,43.78-44.88,43.78-17.77,0-33.16-5.49-38.29-5.49-2.93,0-4,2-5.5,5.49h-2.56L496,229.15h3.11c9.16,18.32,26.93,39.76,47.08,39.76C557.23,268.91,569.5,263,569.5,249.67Z" transform="translate(-17.39 -14.67)"/><path class="cls-2" d="M706.71,188.67h-3.48c-9.89-29.87-15.57-42.14-32.24-42.14h-2.2V267.07h15.57v3.85H617.5v-3.85h15.57V146.53h-2.38c-16.67,0-22.9,13.74-32.25,42.14H595l1.84-46H704.88Z" transform="translate(-17.39 -14.67)"/><path class="cls-2" d="M845.05,61.81v5.67H828.62v94.4l2.39-.6,84.24-93.8h-23.6V61.81h52.28v5.67H926l-51.39,57.36,71.7,140.41h16.13v5.67H866.56v-5.67h14L831.31,170l-2.69.6v94.7h16.43v5.67H753.94v-5.67h16.43V67.48H753.94V61.81Z" transform="translate(-17.39 -14.67)"/><path class="cls-2" d="M1026.19,142.68v3.48h-10.08V267.44h10.08v3.48H970.32v-3.48h10.07V146.16H970.32v-3.48Z" transform="translate(-17.39 -14.67)"/><path class="cls-2" d="M1138.86,270.92h-25.65l-62.84-118.53V267.44h10.08v3.48h-25.1v-3.48h10.08V146.16h-10.08v-3.48h50.56l48,92V146.16h-10.08v-3.48h25.1v3.48h-10.07Z" transform="translate(-17.39 -14.67)"/><path class="cls-2" d="M1237.05,254.62V219.08h-11.72v-4h52.76v4h-7.15v51.66h-2.74c-2.2-3.12-4.22-4.58-9.35-4.58-7.33,0-21.07,6.59-37,6.59-38.84,0-62.66-20.52-62.66-64.3,0-44.33,25.65-67.78,63.21-67.78,19,0,28.94,5.68,35.35,5.68,2.93,0,3.67-1.29,5-3.67h2l1.47,39.76h-3.3c-10.26-20.52-22.16-38.11-38.29-38.11-18.13,0-28,16.86-28,54.78v14.47c0,37.19,9.71,55.51,26.57,55.51C1236,269.09,1237.05,264,1237.05,254.62Z" transform="translate(-17.39 -14.67)"/><path class="cls-2" d="M1365.11,249.67c0-15.21-11.36-20.15-33.9-26.56-22.16-6.23-39-15-39-42.69,0-20.52,15.21-39.75,43.42-39.75,16.85,0,26.38,5.68,32.61,5.68,3.11,0,4-1.29,5.31-3.67h2l1.28,37h-2.93c-9.34-16.86-21.8-35.17-40.67-35.17-13.19,0-22.35,7.69-22.35,18.5,0,13.55,12.46,18.13,31,23.08,20.33,5.5,42.87,12.46,42.87,42.87,0,26.38-18,43.78-44.89,43.78-17.77,0-33.15-5.49-38.28-5.49-2.93,0-4,2-5.5,5.49h-2.56l-1.84-43.6h3.12c9.16,18.32,26.93,39.76,47.08,39.76C1352.83,268.91,1365.11,263,1365.11,249.67Z" transform="translate(-17.39 -14.67)"/><path class="cls-1" d="M137.26,371.1V321.18h14.17q6.73,0,10.33,3.17t3.59,9.21a14.94,14.94,0,0,1-2.48,8.47,16,16,0,0,1-7,5.7l15.63,23.37h-8.16L150,350h-6.18V371.1Zm6.58-26.41H146q6.15,0,9.35-2.66t3.2-7.79q0-7.77-10.53-7.76h-4.18Z" transform="translate(-17.39 -14.67)"/><path class="cls-1" d="M255.42,369.92a35.89,35.89,0,0,1-10.73,2,15.81,15.81,0,0,1-12.4-5.38q-4.77-5.37-4.77-13.93,0-8.33,4.22-13.65a13.21,13.21,0,0,1,10.8-5.33,11.14,11.14,0,0,1,9.63,4.74q3.41,4.74,3.4,13.44l0,2H233.88q1.35,13,12,13a27,27,0,0,0,9.56-2.26Zm-21.26-21h15.15q0-10.23-7.15-10.23T234.16,348.88Z" transform="translate(-17.39 -14.67)"/><path class="cls-1" d="M316.89,369.82v-6.1Q323,367,327.52,367A6.52,6.52,0,0,0,332,365.4a4.93,4.93,0,0,0,1.77-3.88c0-2.27-1.66-4.14-5-5.63l-3.64-1.65q-8.06-3.57-8.06-10.29a9.46,9.46,0,0,1,3.18-7.54q3.18-2.75,8.71-2.75a37.11,37.11,0,0,1,7.12.85l1.29.27v5.53a29.39,29.39,0,0,0-8.31-1.66,6.9,6.9,0,0,0-4.35,1.27,4.05,4.05,0,0,0-1.63,3.39q0,3,4.55,5.06l3,1.35q5.09,2.29,7.21,4.84a9.63,9.63,0,0,1,2.12,6.36,10,10,0,0,1-3.58,7.92,13.43,13.43,0,0,1-9.14,3.11A32.53,32.53,0,0,1,316.89,369.82Z" transform="translate(-17.39 -14.67)"/><path class="cls-1" d="M416.67,372q-7.57,0-12-5.16t-4.41-14q0-8.84,4.41-14t12-5.15c5,0,9,1.72,12,5.15s4.41,8.09,4.41,14-1.47,10.56-4.41,14S421.7,372,416.67,372Zm0-5a8.26,8.26,0,0,0,7.2-3.71q2.55-3.72,2.56-10.46t-2.56-10.44a8.85,8.85,0,0,0-14.39,0q-2.54,3.69-2.54,10.44t2.54,10.46A8.22,8.22,0,0,0,416.65,367Z" transform="translate(-17.39 -14.67)"/><path class="cls-1" d="M494.62,371.1V334.47h6.23v6.88q3.69-7.68,10.75-7.69a13,13,0,0,1,2,.17v6.24a8.75,8.75,0,0,0-2.85-.57q-5.92,0-9.9,7.48V371.1Z" transform="translate(-17.39 -14.67)"/><path class="cls-1" d="M588.26,371.1a18,18,0,0,1-5,.85,9.54,9.54,0,0,1-7.4-2.9c-1.77-1.94-2.66-4.62-2.66-8.06V339.46h-4.3v-5h4.3v-6.64l6.23-.64v7.28h9v5h-9v20.31q0,7.19,5.82,7.19a13.05,13.05,0,0,0,3-.44Z" transform="translate(-17.39 -14.67)"/><path class="cls-1" d="M748.65,371.1l-2.31-3a18.62,18.62,0,0,1-12.11,4.21,16.74,16.74,0,0,1-12.07-4.53,15.35,15.35,0,0,1-4.73-11.56q0-11.53,11.42-15.65-3.17-6.11-3.16-10.15A9.76,9.76,0,0,1,729,323a11.35,11.35,0,0,1,8-3.06,10.37,10.37,0,0,1,7.51,2.85,9.6,9.6,0,0,1,3,7.24q0,7.49-10.3,13a101.87,101.87,0,0,0,11,16.63Q751,355.19,751,347l0-2.43h6.23a30.28,30.28,0,0,1-6.2,19.09,64.55,64.55,0,0,0,6.49,7.45Zm-5-6.81A153.88,153.88,0,0,1,731,344.56q-7.31,3.1-7.31,10.08a13,13,0,0,0,3.37,9,10.69,10.69,0,0,0,8.21,3.71A13.5,13.5,0,0,0,743.62,364.29Zm-8.72-25.47q6.74-3.27,6.73-8.7a5.27,5.27,0,0,0-1.35-3.78,4.68,4.68,0,0,0-3.54-1.41,4.49,4.49,0,0,0-3.5,1.43,5.38,5.38,0,0,0-1.32,3.79Q731.92,333.6,734.9,338.82Z" transform="translate(-17.39 -14.67)"/><path class="cls-1" d="M925.62,368.54a30.87,30.87,0,0,1-15.12,3.81q-10.9,0-16.86-6.81t-5.94-19.36q0-12.53,6-19.38t17.1-6.87a59.8,59.8,0,0,1,14.71,2.2v6.64q-9.62-3.54-14.84-3.54-7.62,0-11.8,5.5t-4.17,15.51q0,9.58,4.46,15.08t12.21,5.5q6.62,0,14.2-4.35Z" transform="translate(-17.39 -14.67)"/><path class="cls-1" d="M1005,366.45q-5.61,5.51-10.79,5.5a9.56,9.56,0,0,1-7.09-2.85,9.85,9.85,0,0,1-2.81-7.2,10.5,10.5,0,0,1,4.73-9.23q4.73-3.23,13.58-3.22h1.46V345q0-6.37-6.23-6.38a21.75,21.75,0,0,0-10.57,3.24v-5.5a29.9,29.9,0,0,1,11.86-2.73q5.73,0,8.45,2.79t2.72,8.58v16.6q0,5.7,3.29,5.7a8,8,0,0,0,1.2-.14l.45,3.68a10.21,10.21,0,0,1-4.69,1.08Q1006.2,372,1005,366.45Zm-.92-3.61v-9.48l-2-.07a15.21,15.21,0,0,0-8.37,2.06,6.25,6.25,0,0,0-3.18,5.47,5.64,5.64,0,0,0,1.58,4,5.12,5.12,0,0,0,3.86,1.66C998.58,366.52,1001.27,365.29,1004.08,362.84Z" transform="translate(-17.39 -14.67)"/><path class="cls-1" d="M1073.62,369.82v-6.1q6.11,3.24,10.63,3.24a6.52,6.52,0,0,0,4.46-1.56,4.93,4.93,0,0,0,1.77-3.88c0-2.27-1.66-4.14-5-5.63l-3.64-1.65q-8.05-3.57-8.06-10.29a9.46,9.46,0,0,1,3.18-7.54q3.18-2.75,8.71-2.75a37.11,37.11,0,0,1,7.12.85l1.29.27v5.53a29.45,29.45,0,0,0-8.31-1.66,6.9,6.9,0,0,0-4.35,1.27,4.05,4.05,0,0,0-1.63,3.39c0,2,1.51,3.69,4.55,5.06l3,1.35q5.08,2.29,7.21,4.84a9.63,9.63,0,0,1,2.12,6.36,10,10,0,0,1-3.58,7.92A13.43,13.43,0,0,1,1084,372,32.53,32.53,0,0,1,1073.62,369.82Z" transform="translate(-17.39 -14.67)"/><path class="cls-1" d="M1159.73,327.83v-6.65H1166v6.65Zm0,43.27V334.47H1166V371.1Z" transform="translate(-17.39 -14.67)"/><path class="cls-1" d="M1230.28,371.1V334.47h6.23v6.88q4.93-7.68,12.08-7.69a9,9,0,0,1,7.14,3,11.89,11.89,0,0,1,2.64,8.11V371.1h-6.23V347q0-4.08-1.13-5.82a4.08,4.08,0,0,0-3.71-1.73q-5.73,0-10.79,8V371.1Z" transform="translate(-17.39 -14.67)"/><path class="cls-1" d="M1336,372q-7.56,0-12-5.16t-4.41-14q0-8.84,4.41-14t12-5.15q7.56,0,12,5.15t4.42,14q0,8.83-4.42,14T1336,372Zm0-5a8.26,8.26,0,0,0,7.2-3.71q2.55-3.72,2.55-10.46t-2.55-10.44a8.85,8.85,0,0,0-14.39,0q-2.54,3.69-2.54,10.44t2.54,10.46A8.22,8.22,0,0,0,1336,367Z" transform="translate(-17.39 -14.67)"/><rect id="frame" class="cls-3" x="4" y="4" width="1428.61" height="365.33"/></svg>